<?xml version="1.0" encoding="utf-8"?>
<!-- Generator: Adobe Illustrator 21.1.0, SVG Export Plug-In . SVG Version: 6.00 Build 0)  -->
<svg version="1.1" id="Default" xmlns="http://www.w3.org/2000/svg" xmlns:xlink="http://www.w3.org/1999/xlink" x="0px" y="0px"
	 viewBox="0 0 1224.3 791.7" style="enable-background:new 0 0 1224.3 791.7;" xml:space="preserve">
<style type="text/css">
	.st0{fill:none;stroke:#070809;stroke-width:2.75;stroke-linecap:round;}
	.st1{fill:none;stroke:#070809;stroke-linecap:round;}
	.st2{fill:none;stroke:#070809;stroke-width:2;stroke-linecap:round;}
	.st3{fill:none;stroke:#070809;stroke-width:0.8;stroke-linecap:round;}
	.st4{fill:none;stroke:#070809;stroke-width:0.3509;stroke-linecap:round;}
</style>
<line class="st0" x1="855.8" y1="176.5" x2="786.6" y2="152.5"/>
<line class="st0" x1="786.6" y1="152.5" x2="775.6" y2="152.7"/>
<line class="st0" x1="855.8" y1="176.5" x2="765.9" y2="670.2"/>
<line class="st1" x1="786.6" y1="152.5" x2="671.6" y2="791.7"/>
<line class="st0" x1="775.6" y1="152.7" x2="660.7" y2="791.7"/>
<line class="st0" x1="1122.8" y1="791.7" x2="1224.3" y2="587.1"/>
<line class="st1" x1="1148.7" y1="791.7" x2="1224.3" y2="637.4"/>
<line class="st0" x1="1224.3" y1="776.2" x2="1217" y2="791.7"/>
<line class="st1" x1="1209.6" y1="388.5" x2="1051.9" y2="765.8"/>
<line class="st0" x1="1209.6" y1="388.5" x2="1191.2" y2="386.2"/>
<line class="st0" x1="1191.2" y1="386.2" x2="1046.6" y2="729.9"/>
<line class="st0" x1="1224.3" y1="406.5" x2="1209.6" y2="388.5"/>
<line class="st0" x1="1224.3" y1="502.8" x2="1106.4" y2="791.7"/>
<line class="st0" x1="921.6" y1="219.6" x2="935.7" y2="220"/>
<line class="st0" x1="995.3" y1="251.7" x2="935.7" y2="220"/>
<line class="st0" x1="885.3" y1="674.1" x2="995.3" y2="251.7"/>
<line class="st1" x1="935.7" y1="220" x2="812" y2="692"/>
<line class="st0" x1="921.6" y1="219.6" x2="796.5" y2="696.8"/>
<line class="st0" x1="1132.5" y1="334.4" x2="1081.9" y2="293"/>
<line class="st0" x1="1081.9" y1="293" x2="1065.4" y2="292"/>
<line class="st0" x1="1132.5" y1="334.4" x2="1003.7" y2="715"/>
<line class="st1" x1="1081.9" y1="293" x2="944.1" y2="694.4"/>
<line class="st0" x1="1065.4" y1="292" x2="926.3" y2="695.3"/>
<line class="st2" x1="765.9" y1="670.2" x2="726.3" y2="681.6"/>
<line class="st3" x1="726.3" y1="681.6" x2="765.9" y2="697.1"/>
<line class="st1" x1="765.9" y1="697.1" x2="799.1" y2="687.1"/>
<line class="st2" x1="772.3" y1="635.1" x2="809.3" y2="647.9"/>
<line class="st2" x1="685.1" y1="655.9" x2="671" y2="659.8"/>
<line class="st3" x1="671" y1="659.8" x2="683.6" y2="664.8"/>
<line class="st2" x1="671" y1="659.8" x2="670.5" y2="737.7"/>
<line class="st1" x1="764" y1="791.7" x2="765.9" y2="697.1"/>
<line class="st2" x1="726.3" y1="681.6" x2="724.6" y2="791.7"/>
<line class="st1" x1="953.9" y1="771.6" x2="1053.8" y2="732.4"/>
<line class="st2" x1="1041" y1="728" x2="1053.8" y2="732.4"/>
<line class="st2" x1="941" y1="766.5" x2="1041" y2="728"/>
<line class="st3" x1="941" y1="766.5" x2="953.9" y2="771.6"/>
<line class="st2" x1="1053.8" y1="732.4" x2="1050.4" y2="791.7"/>
<line class="st2" x1="940" y1="791.7" x2="941" y2="766.5"/>
<line class="st1" x1="952.9" y1="791.7" x2="953.9" y2="771.6"/>
<line class="st3" x1="894" y1="747.9" x2="918.3" y2="757.6"/>
<line class="st1" x1="918.3" y1="757.6" x2="1018.3" y2="720.1"/>
<line class="st2" x1="994" y1="711.8" x2="1018.3" y2="720.1"/>
<line class="st2" x1="894" y1="747.9" x2="994" y2="711.8"/>
<line class="st2" x1="1018.3" y1="720.1" x2="1017.5" y2="737"/>
<line class="st1" x1="917" y1="791.7" x2="918.3" y2="757.6"/>
<line class="st2" x1="892.4" y1="791.7" x2="894" y2="747.9"/>
<line class="st3" x1="836.9" y1="725.3" x2="876.1" y2="740.9"/>
<line class="st1" x1="876.1" y1="740.9" x2="976.1" y2="705.5"/>
<line class="st2" x1="936.6" y1="691.9" x2="976.1" y2="705.5"/>
<line class="st2" x1="836.9" y1="725.3" x2="936.6" y2="691.9"/>
<line class="st2" x1="976.1" y1="705.5" x2="975.4" y2="718.4"/>
<line class="st2" x1="834.9" y1="791.7" x2="836.9" y2="725.3"/>
<line class="st3" x1="778.8" y1="702.4" x2="821.4" y2="719.1"/>
<line class="st1" x1="821.4" y1="719.1" x2="921.1" y2="686.6"/>
<line class="st2" x1="878" y1="671.6" x2="921.1" y2="686.6"/>
<line class="st2" x1="778.8" y1="702.4" x2="878" y2="671.6"/>
<line class="st2" x1="921.1" y1="686.6" x2="920.7" y2="697.1"/>
<line class="st1" x1="819.3" y1="791.7" x2="821.4" y2="719.1"/>
<line class="st2" x1="776.8" y1="791.7" x2="778.8" y2="702.4"/>
<line class="st1" x1="874.4" y1="791.7" x2="876.1" y2="740.9"/>
<line class="st4" x1="777.3" y1="770.2" x2="771.6" y2="791.7"/>
</svg>
