<?xml version="1.0" encoding="utf-8"?>
<!-- Generator: Adobe Illustrator 21.1.0, SVG Export Plug-In . SVG Version: 6.00 Build 0)  -->
<svg version="1.1" id="Default" xmlns="http://www.w3.org/2000/svg" xmlns:xlink="http://www.w3.org/1999/xlink" x="0px" y="0px"
	 viewBox="0 0 3000 2000" style="enable-background:new 0 0 3000 2000;" xml:space="preserve">
<style type="text/css">
	.st0{fill:none;stroke:#000000;stroke-width:5;stroke-linecap:round;}
	.st1{fill:none;stroke:#000000;stroke-width:3;stroke-linecap:round;}
	.st2{fill:none;stroke:#000000;stroke-width:2;stroke-linecap:round;}
</style>
<line class="st0" x1="2994" y1="1648.8" x2="2872" y2="1578.3"/>
<line class="st0" x1="2994" y1="1688.2" x2="2994" y2="1648.8"/>
<line class="st0" x1="2869.1" y1="1760.3" x2="2994" y2="1688.2"/>
<line class="st1" x1="2869.1" y1="1720.9" x2="2994" y2="1648.8"/>
<line class="st0" x1="2126.9" y1="1797.1" x2="2126.9" y2="1757.7"/>
<line class="st0" x1="2423.1" y1="1586.6" x2="2126.9" y2="1757.7"/>
<line class="st0" x1="2126.9" y1="1797.1" x2="2466.1" y2="1993"/>
<line class="st2" x1="2466.1" y1="1993" x2="2466.1" y2="1953.5"/>
<line class="st1" x1="2126.9" y1="1757.7" x2="2466.1" y2="1953.5"/>
<line class="st0" x1="2762.4" y1="1822" x2="2762.4" y2="1782.5"/>
<line class="st1" x1="2466.1" y1="1953.5" x2="2762.4" y2="1782.5"/>
<line class="st0" x1="2466.1" y1="1993" x2="2762.4" y2="1822"/>
<line class="st0" x1="2762.4" y1="1782.5" x2="2640.3" y2="1712.1"/>
<line class="st0" x1="2452.4" y1="1603.5" x2="2423.1" y2="1586.6"/>
<line class="st0" x1="1844" y1="1353.1" x2="2335.8" y2="1637"/>
<line class="st0" x1="2869.1" y1="1905.5" x2="2869.1" y2="1420"/>
<line class="st2" x1="2869.1" y1="1420" x2="2835" y2="1439.7"/>
<line class="st1" x1="2835" y1="1925.2" x2="2835" y2="1439.7"/>
<line class="st0" x1="2563.4" y1="1243.5" x2="1878.2" y2="847.9"/>
<line class="st0" x1="1878.2" y1="847.9" x2="1844" y2="867.6"/>
<line class="st1" x1="2529.3" y1="1263.2" x2="1844" y2="867.6"/>
<line class="st0" x1="1844" y1="867.6" x2="1844" y2="1353.1"/>
<line class="st0" x1="2869.1" y1="1905.5" x2="2835" y2="1925.2"/>
<line class="st0" x1="2709.3" y1="1852.6" x2="2835" y2="1925.2"/>
<line class="st1" x1="2835" y1="1439.7" x2="2640.3" y2="1327.3"/>
<line class="st0" x1="2869.1" y1="1420" x2="2674.5" y2="1307.6"/>
<line class="st0" x1="2640.3" y1="1327.3" x2="2674.5" y2="1307.6"/>
<line class="st0" x1="2640.3" y1="1712.1" x2="2640.3" y2="1327.3"/>
<line class="st0" x1="2452.4" y1="1781.1" x2="2486.6" y2="1800.8"/>
<line class="st1" x1="2486.6" y1="1800.8" x2="2486.6" y2="1327.3"/>
<line class="st2" x1="2486.6" y1="1327.3" x2="2452.4" y2="1307.6"/>
<line class="st0" x1="2452.4" y1="1781.1" x2="2452.4" y2="1307.6"/>
<line class="st1" x1="2486.6" y1="1327.3" x2="2957.4" y2="1055.5"/>
<line class="st0" x1="2957.4" y1="1055.5" x2="2923.2" y2="1035.8"/>
<line class="st0" x1="2452.4" y1="1307.6" x2="2923.2" y2="1035.8"/>
<line class="st0" x1="2957.4" y1="1055.5" x2="2957.4" y2="1627.6"/>
<line class="st2" x1="2872" y1="1578.3" x2="2869.1" y2="1580"/>
<line class="st0" x1="2640.3" y1="1712.1" x2="2486.6" y2="1800.8"/>
</svg>
